<mxfile host="app.diagrams.net" agent="Mozilla/5.0 (Windows NT 10.0; Win64; x64) AppleWebKit/537.36 (KHTML, like Gecko) Chrome/136.0.0.0 Safari/537.36" version="26.0.16">
  <diagram name="Page-1" id="TBWMepy2AFqBPVb9dqvy">
    <mxGraphModel dx="1688" dy="627" grid="1" gridSize="10" guides="1" tooltips="1" connect="1" arrows="1" fold="1" page="1" pageScale="1" pageWidth="1169" pageHeight="827" math="0" shadow="0">
      <root>
        <mxCell id="0" />
        <mxCell id="1" parent="0" />
        <mxCell id="Gkm0foc6eukxeUPMMD3u-1" value="" style="shape=mxgraph.cisco.computers_and_peripherals.laptop;sketch=0;html=1;pointerEvents=1;dashed=0;fillColor=#036897;strokeColor=#ffffff;strokeWidth=2;verticalLabelPosition=bottom;verticalAlign=top;align=center;outlineConnect=0;" vertex="1" parent="1">
          <mxGeometry x="80" y="335" width="50" height="30" as="geometry" />
        </mxCell>
        <mxCell id="Gkm0foc6eukxeUPMMD3u-2" value="" style="endArrow=none;dashed=1;html=1;dashPattern=1 3;strokeWidth=2;rounded=0;" edge="1" parent="1">
          <mxGeometry width="50" height="50" relative="1" as="geometry">
            <mxPoint x="160" y="620" as="sourcePoint" />
            <mxPoint x="160" y="185" as="targetPoint" />
          </mxGeometry>
        </mxCell>
        <mxCell id="Gkm0foc6eukxeUPMMD3u-3" value="Beverage Controller" style="rounded=0;whiteSpace=wrap;html=1;" vertex="1" parent="1">
          <mxGeometry x="210" y="200" width="90" height="40" as="geometry" />
        </mxCell>
        <mxCell id="Gkm0foc6eukxeUPMMD3u-4" value="Beverage Log Controller" style="rounded=0;whiteSpace=wrap;html=1;" vertex="1" parent="1">
          <mxGeometry x="210" y="330" width="90" height="40" as="geometry" />
        </mxCell>
        <mxCell id="Gkm0foc6eukxeUPMMD3u-5" value="User Controller" style="rounded=0;whiteSpace=wrap;html=1;" vertex="1" parent="1">
          <mxGeometry x="210" y="510" width="90" height="40" as="geometry" />
        </mxCell>
        <mxCell id="Gkm0foc6eukxeUPMMD3u-6" value="" style="endArrow=classic;html=1;rounded=0;entryX=0;entryY=0.5;entryDx=0;entryDy=0;exitX=0.95;exitY=0.5;exitDx=0;exitDy=0;exitPerimeter=0;" edge="1" parent="1" source="Gkm0foc6eukxeUPMMD3u-1" target="Gkm0foc6eukxeUPMMD3u-3">
          <mxGeometry width="50" height="50" relative="1" as="geometry">
            <mxPoint x="130" y="320" as="sourcePoint" />
            <mxPoint x="180" y="270" as="targetPoint" />
          </mxGeometry>
        </mxCell>
        <mxCell id="Gkm0foc6eukxeUPMMD3u-7" value="" style="endArrow=classic;html=1;rounded=0;entryX=0;entryY=0.5;entryDx=0;entryDy=0;" edge="1" parent="1" source="Gkm0foc6eukxeUPMMD3u-1" target="Gkm0foc6eukxeUPMMD3u-4">
          <mxGeometry width="50" height="50" relative="1" as="geometry">
            <mxPoint x="120" y="410" as="sourcePoint" />
            <mxPoint x="170" y="360" as="targetPoint" />
          </mxGeometry>
        </mxCell>
        <mxCell id="Gkm0foc6eukxeUPMMD3u-8" value="" style="endArrow=classic;html=1;rounded=0;entryX=0;entryY=0.5;entryDx=0;entryDy=0;exitX=0.95;exitY=0.5;exitDx=0;exitDy=0;exitPerimeter=0;" edge="1" parent="1" source="Gkm0foc6eukxeUPMMD3u-1" target="Gkm0foc6eukxeUPMMD3u-5">
          <mxGeometry width="50" height="50" relative="1" as="geometry">
            <mxPoint x="100" y="430" as="sourcePoint" />
            <mxPoint x="150" y="380" as="targetPoint" />
          </mxGeometry>
        </mxCell>
        <mxCell id="Gkm0foc6eukxeUPMMD3u-9" value="" style="endArrow=none;dashed=1;html=1;dashPattern=1 3;strokeWidth=2;rounded=0;" edge="1" parent="1">
          <mxGeometry width="50" height="50" relative="1" as="geometry">
            <mxPoint x="350" y="630" as="sourcePoint" />
            <mxPoint x="350" y="180" as="targetPoint" />
          </mxGeometry>
        </mxCell>
        <mxCell id="Gkm0foc6eukxeUPMMD3u-10" value="POST /Beverage&lt;div&gt;GET /Beverage/{id}&lt;/div&gt;&lt;div&gt;GET /Beverages&lt;/div&gt;&lt;div&gt;DELETE /Beverage/{id}&lt;/div&gt;" style="text;html=1;align=center;verticalAlign=middle;whiteSpace=wrap;rounded=0;fontSize=10;" vertex="1" parent="1">
          <mxGeometry x="200" y="240" width="110" height="70" as="geometry" />
        </mxCell>
        <mxCell id="Gkm0foc6eukxeUPMMD3u-11" value="&lt;span style=&quot;font-size: 10px;&quot;&gt;POST /BevrageLog&lt;/span&gt;&lt;div&gt;&lt;span style=&quot;font-size: 10px;&quot;&gt;GET /BeverageLog/{id}&lt;/span&gt;&lt;/div&gt;&lt;div&gt;&lt;span style=&quot;font-size: 10px;&quot;&gt;GET /BeverageLogs/{userID}&lt;/span&gt;&lt;/div&gt;&lt;div&gt;&lt;span style=&quot;font-size: 10px;&quot;&gt;GET /BeverageLogs&lt;/span&gt;&lt;/div&gt;&lt;div&gt;&lt;span style=&quot;font-size: 10px;&quot;&gt;GET /BeverageLogsWithUsers&lt;/span&gt;&lt;/div&gt;&lt;div&gt;&lt;span style=&quot;font-size: 10px;&quot;&gt;DELETE /BeverageLog/{id}&lt;/span&gt;&lt;/div&gt;&lt;div&gt;&lt;span style=&quot;font-size: 10px;&quot;&gt;DELETE /BeverageLogs/{userId}&lt;/span&gt;&lt;/div&gt;" style="text;html=1;align=center;verticalAlign=middle;whiteSpace=wrap;rounded=0;" vertex="1" parent="1">
          <mxGeometry x="177.5" y="365" width="160" height="120" as="geometry" />
        </mxCell>
        <mxCell id="Gkm0foc6eukxeUPMMD3u-12" value="POST /User&lt;div&gt;GET /User/{id}&lt;/div&gt;&lt;div&gt;GET /Users&lt;/div&gt;&lt;div&gt;PUT /User/{id}&lt;/div&gt;&lt;div&gt;DELETE /User/{id}&lt;/div&gt;" style="text;html=1;align=center;verticalAlign=middle;whiteSpace=wrap;rounded=0;fontSize=10;" vertex="1" parent="1">
          <mxGeometry x="177.5" y="550" width="155" height="80" as="geometry" />
        </mxCell>
        <mxCell id="Gkm0foc6eukxeUPMMD3u-13" value="IBeverageRepository / BeverageRepositoryefImpl" style="rounded=0;whiteSpace=wrap;html=1;" vertex="1" parent="1">
          <mxGeometry x="420" y="190" width="220" height="60" as="geometry" />
        </mxCell>
        <mxCell id="Gkm0foc6eukxeUPMMD3u-14" value="" style="endArrow=classic;html=1;rounded=0;entryX=0;entryY=0.5;entryDx=0;entryDy=0;exitX=1;exitY=0.5;exitDx=0;exitDy=0;" edge="1" parent="1" source="Gkm0foc6eukxeUPMMD3u-3" target="Gkm0foc6eukxeUPMMD3u-13">
          <mxGeometry width="50" height="50" relative="1" as="geometry">
            <mxPoint x="330" y="260" as="sourcePoint" />
            <mxPoint x="380" y="210" as="targetPoint" />
          </mxGeometry>
        </mxCell>
        <mxCell id="Gkm0foc6eukxeUPMMD3u-15" value="IBeverageLogRepository / BeverageLogRepositoryefImpl" style="rounded=0;whiteSpace=wrap;html=1;" vertex="1" parent="1">
          <mxGeometry x="420" y="320" width="220" height="60" as="geometry" />
        </mxCell>
        <mxCell id="Gkm0foc6eukxeUPMMD3u-19" value="IUserRepository / UserRepositoryefImpl" style="rounded=0;whiteSpace=wrap;html=1;" vertex="1" parent="1">
          <mxGeometry x="465" y="500" width="130" height="60" as="geometry" />
        </mxCell>
        <mxCell id="Gkm0foc6eukxeUPMMD3u-20" value="" style="endArrow=classic;html=1;rounded=0;entryX=0;entryY=0.5;entryDx=0;entryDy=0;exitX=1;exitY=0.5;exitDx=0;exitDy=0;" edge="1" parent="1" source="Gkm0foc6eukxeUPMMD3u-5" target="Gkm0foc6eukxeUPMMD3u-19">
          <mxGeometry width="50" height="50" relative="1" as="geometry">
            <mxPoint x="350" y="560" as="sourcePoint" />
            <mxPoint x="400" y="510" as="targetPoint" />
          </mxGeometry>
        </mxCell>
        <mxCell id="Gkm0foc6eukxeUPMMD3u-21" value="" style="endArrow=classic;html=1;rounded=0;entryX=0;entryY=0.5;entryDx=0;entryDy=0;exitX=1;exitY=0.5;exitDx=0;exitDy=0;" edge="1" parent="1" source="Gkm0foc6eukxeUPMMD3u-4" target="Gkm0foc6eukxeUPMMD3u-15">
          <mxGeometry width="50" height="50" relative="1" as="geometry">
            <mxPoint x="310" y="390" as="sourcePoint" />
            <mxPoint x="360" y="340" as="targetPoint" />
          </mxGeometry>
        </mxCell>
        <mxCell id="Gkm0foc6eukxeUPMMD3u-23" value="" style="endArrow=none;dashed=1;html=1;dashPattern=1 3;strokeWidth=2;rounded=0;" edge="1" parent="1">
          <mxGeometry width="50" height="50" relative="1" as="geometry">
            <mxPoint x="690" y="630" as="sourcePoint" />
            <mxPoint x="690" y="170" as="targetPoint" />
          </mxGeometry>
        </mxCell>
        <mxCell id="Gkm0foc6eukxeUPMMD3u-24" value="" style="shape=mxgraph.cisco.computers_and_peripherals.ibm_tower;sketch=0;html=1;pointerEvents=1;dashed=0;fillColor=#036897;strokeColor=#ffffff;strokeWidth=2;verticalLabelPosition=bottom;verticalAlign=top;align=center;outlineConnect=0;" vertex="1" parent="1">
          <mxGeometry x="760" y="250" width="110" height="260" as="geometry" />
        </mxCell>
        <mxCell id="Gkm0foc6eukxeUPMMD3u-25" value="Database" style="text;html=1;align=center;verticalAlign=middle;whiteSpace=wrap;rounded=0;" vertex="1" parent="1">
          <mxGeometry x="785" y="530" width="60" height="30" as="geometry" />
        </mxCell>
        <mxCell id="Gkm0foc6eukxeUPMMD3u-26" value="" style="endArrow=classic;startArrow=classic;html=1;rounded=0;exitX=1;exitY=0.5;exitDx=0;exitDy=0;" edge="1" parent="1" source="Gkm0foc6eukxeUPMMD3u-13" target="Gkm0foc6eukxeUPMMD3u-24">
          <mxGeometry width="50" height="50" relative="1" as="geometry">
            <mxPoint x="670" y="300" as="sourcePoint" />
            <mxPoint x="720" y="250" as="targetPoint" />
          </mxGeometry>
        </mxCell>
        <mxCell id="Gkm0foc6eukxeUPMMD3u-27" value="" style="endArrow=classic;startArrow=classic;html=1;rounded=0;exitX=1;exitY=0.5;exitDx=0;exitDy=0;" edge="1" parent="1" source="Gkm0foc6eukxeUPMMD3u-15" target="Gkm0foc6eukxeUPMMD3u-24">
          <mxGeometry width="50" height="50" relative="1" as="geometry">
            <mxPoint x="670" y="390" as="sourcePoint" />
            <mxPoint x="720" y="340" as="targetPoint" />
          </mxGeometry>
        </mxCell>
        <mxCell id="Gkm0foc6eukxeUPMMD3u-28" value="" style="endArrow=classic;startArrow=classic;html=1;rounded=0;exitX=1;exitY=0.5;exitDx=0;exitDy=0;" edge="1" parent="1" source="Gkm0foc6eukxeUPMMD3u-19" target="Gkm0foc6eukxeUPMMD3u-24">
          <mxGeometry width="50" height="50" relative="1" as="geometry">
            <mxPoint x="650" y="530" as="sourcePoint" />
            <mxPoint x="700" y="480" as="targetPoint" />
          </mxGeometry>
        </mxCell>
        <mxCell id="Gkm0foc6eukxeUPMMD3u-29" value="External Clients" style="text;html=1;align=center;verticalAlign=middle;whiteSpace=wrap;rounded=0;" vertex="1" parent="1">
          <mxGeometry x="50" y="140" width="90" height="30" as="geometry" />
        </mxCell>
        <mxCell id="Gkm0foc6eukxeUPMMD3u-30" value="Controller Layer" style="text;html=1;align=center;verticalAlign=middle;whiteSpace=wrap;rounded=0;" vertex="1" parent="1">
          <mxGeometry x="220" y="140" width="90" height="30" as="geometry" />
        </mxCell>
        <mxCell id="Gkm0foc6eukxeUPMMD3u-31" value="Data Layer" style="text;html=1;align=center;verticalAlign=middle;whiteSpace=wrap;rounded=0;" vertex="1" parent="1">
          <mxGeometry x="490" y="140" width="80" height="30" as="geometry" />
        </mxCell>
        <mxCell id="Gkm0foc6eukxeUPMMD3u-32" value="External Entities" style="text;html=1;align=center;verticalAlign=middle;whiteSpace=wrap;rounded=0;" vertex="1" parent="1">
          <mxGeometry x="767.5" y="140" width="95" height="30" as="geometry" />
        </mxCell>
      </root>
    </mxGraphModel>
  </diagram>
</mxfile>
